<?xml version="1.0" encoding="UTF-8"?>
<svg id="Layer_1" xmlns="http://www.w3.org/2000/svg" version="1.1" viewBox="0 0 51.5 51.5">
  <!-- Generator: Adobe Illustrator 30.6.0, SVG Export Plug-In . SVG Version: 2.1.4 Build 109)  -->
  <defs>
    <style>
      .st0 {
        fill-rule: evenodd;
      }

      .st0, .st1 {
        fill: #fff;
      }

      .st2 {
        stroke: #ee3e2d;
      }

      .st2, .st3, .st4, .st5 {
        stroke-miterlimit: 10;
      }

      .st2, .st4, .st5 {
        fill: none;
      }

      .st2, .st5 {
        stroke-width: 1px;
      }

      .st6, .st3 {
        fill: #26262a;
      }

      .st7 {
        fill: #ee3e2d;
      }

      .st3 {
        stroke-width: .2px;
      }

      .st3, .st4 {
        stroke: #f3f3f3;
      }

      .st4 {
        stroke-linecap: round;
        stroke-width: 1.2px;
      }

      .st8 {
        fill: #f3f3f3;
      }

      .st5 {
        stroke: #26262a;
      }
    </style>
  </defs>
  <circle class="st6" cx="25.7" cy="25.7" r="25.7"/>
  <circle class="st2" cx="25.7" cy="25.7" r="21.8"/>
  <circle class="st5" cx="25.7" cy="25.7" r="20.8"/>
  <g>
    <line class="st4" x1="25.7" y1="7.8" x2="25.7" y2="43.7"/>
    <line class="st4" x1="43.7" y1="25.7" x2="7.8" y2="25.7"/>
  </g>
  <g>
    <path class="st7" d="M25.7,45.9c-11.1,0-20.1-9-20.1-20.1S14.6,5.6,25.7,5.6s20.1,9,20.1,20.1-9,20.1-20.1,20.1h0Z"/>
    <path class="st6" d="M25.7,6.7c10.6,0,19,8.5,19,19s-8.5,19-19,19S6.7,36.3,6.7,25.7,15.2,6.7,25.7,6.7M25.7,4.6C14.1,4.6,4.6,14.1,4.6,25.7s9.5,21.2,21.2,21.2,21.2-9.5,21.2-21.2S37.4,4.6,25.7,4.6h0Z"/>
  </g>
  <g>
    <path class="st8" d="M25.7,51c-2.1,0-3.9-1.8-3.9-3.9s1.8-3.9,3.9-3.9,3.9,1.8,3.9,3.9-1.8,3.9-3.9,3.9Z"/>
    <path class="st6" d="M25.7,43.7c1.9,0,3.4,1.5,3.4,3.4s-1.5,3.4-3.4,3.4-3.4-1.5-3.4-3.4,1.5-3.4,3.4-3.4M25.7,42.7c-2.4,0-4.4,1.9-4.4,4.4s1.9,4.4,4.4,4.4,4.4-1.9,4.4-4.4-1.9-4.4-4.4-4.4h0Z"/>
  </g>
  <g>
    <path class="st0" d="M13,19.2c-.4,0-.2.3-.2.6,0,.6,0,1.2.2,1.9,0,.4,0,.5.2.8,0,0,.2.9.3.9l.2-.2v.2c.4,0,.6.3.6-.3,0,0,0,.2.2.2s.2,0,.3-.2h.2c0,0-.2-.5-.2-.7-.2-.5,0-.2,0-.8v-1.1c0,0,0-.4,0-.5s.2,0,.3-.3l2.1,2.9.4-.3h0v.4c.3-.2,0-.5.4-.5v.2-.2c0,0,0,.2,0,.2h.7c0,0,.3.2.4.3,0-.2.3-.5.4-.5h0c.4,0,.2.4.2.7l.3-.4h0l-.4-.4h.2c0,0,.4,0,.4,0v-.2h-.4c.4,0,.4,0,.8,0h.2q.2,0,.3,0c0,.3,0,0,.2,0s.2.3.3.3,0,0,.2-.2c.4,0,0,.3.4.4v-.3s0,0,.2,0l.2-.2v.4c.2-.2.4-.9.7-.9h.2v.3l1.1-.4v-.7h-.2v.2h-.4c0-.2,0-.4.3-.4s.3,0,.6,0v-1.1c0-.3,0-.7.2-.7v-.2l.3-.2-.3-.9c.2,0,.4,0,.4.3.2-.2,0-.5,0-.8h0v-.2h.2c0-.4.2-.4.2-.7v-.4h.3c-.2-.5-.6-1-1.1-1.1-.3,0-.5-.2-.9-.3-.7-.3-.4,0-.7-.5-.2-.2-1.3-.6-1.7-.8-.6-.2-1.4-.3-2.2-.3h0c-.9,0-1.9.4-2.5.8-.7.4-1.2.8-1.8,1.4-.2.2-1.1,1.9-1.2,2-.2.4-.4,2.2-.4,2.8M20.3,13.8c.4,0,1,.5,1.3.6.2,0,.4.3.6.4.3,0,.4,0,.6.4.5.4,1.9,1.2,2,1.9l-1.2-.9v.7s-3.3-3-3.3-3ZM17.3,14.3c.4-.2,1.3-.7,1.9-.7h.4c.4,0,0,1.4,0,1.9v.4c0,.3,0,.4.2.6l-.8-.9v1.2l-1.6-2.4h0ZM14.8,16.9c0-.8,1-1.6,1.6-1.8v.4c0,.4.7,2.1,1,2.6.3.6,1,1.9,1.1,2.5-.3-.2-1.3-1.5-1.8-1.9-.2-.2-1.9-1.8-1.9-1.8Z"/>
    <path class="st0" d="M25.4,30.5v-.3c-.3,0-.4-.4-.4-.7h-.5c.5.9.2.4.2,1.2v.2c0,.5.6.3.8.8l.2-.3v.2c.2,0,.3,0,.3.3l-.3-.2v.4l-.3-.2v.3h0c0,0-.2,0-.2,0v.3-.2l-.2.3h-.4v.2h-.3c.4.2.5.4.6.7.2.3.4.4.4.8l-.3.2h0c-.2,0-.5,0-.5,0h0c0,0,.2.3.2.4h-.2v.3c0,0,0,.2,0,.3h0c0,.4.2.4.2.9v-.3c-.4.2.2.5.3.7.2.3.4.4.5.7.3.4.8,1.2,1.1,1.6,0-.3.3-1.4.3-1.7,0-.6.2-1.1.3-1.6.2-.6.4-2.6.6-3l1.8,1.8c0-1,.4-2.3,0-3,0-.2-1.1-2.1-1.1-2.1,0,0,.2-1,.3-1.1l1.8,1.7c0-.8.4-2.3,0-2.7-.3-.4-1.1-1.2-1.3-1.7v-.4c.4.2,1.4,1.1,1.7,1.4.4.4,1.2,1.3,1.5,1.5,0-1,0-1.4.2-2.2,0-.8-.6-1-.9-1.4l1.5.6v-1.6c0,0,1.3.9,1.3.9l.2-1.9v-.6c0-.3-.2-.2-.3-.4-.3,0-.4,0-.6-.2v.2l-.2-.4c-.4,0-.2.3-.9.3s-.6.2-.9.3v-.4c-.3.2-.3.4-.7.4h-.4v-.3l-.2.2v-.2c-.3,0-.3,0-.5.2-.2.2-.3.2-.5.2,0,0,.2,0,.2-.3v-.2l-.8.2h0c0,0-.3,0-.3,0v-.3l-.5.2c-.4,0-.4.3-.8.4v-.4h0v.2c0,.2,0,.2-.3.2v.4l-.3-.2v.3h-.2c0,0-.2.3-.2.3h-.2c0,0,0,0,0,0q0,.2-.2.2c0,.4,0,.2-.4.2v.3h0v.4h-.2v.3h-.2c0,.4.5.8.5,1.3s0,0,0,.2c-.4,0-.2-.3-.4-.4,0,.2.2.4.2.6s0,.7-.2,1c0,.3-.2.4.2.4s.3,0,.4,0h.2l-.2-.2v-.4c.2,0,.4.2.4.4,0,.3-.4.5-.4.8h0q0,.2.2.2h-.3c0,0,.3.4.3.4h0l-.3.5c0,0-.4-.4-.4-.7v-.3c-.3,0,0,0-.3,0h-.4v.4h0v.2h.2c.2,0,.4.4.5.5,0,.4.2.4.2.7s-.3.5-.3,1.1c-.2-.2-.2-.4-.4-.4v.4h-.3c-.2,0-.2-.2-.2-.3,0-.3.5,0,.5-.4"/>
    <path class="st0" d="M36.1,20.3c0,.2-.2,0,.2.2v-1.1c0-1.1-1.1-2.3-1.5-2.9.7,0,1.2,1.1,1.6,1.7.3.4.3.8.4,1.2,0,.3,0,.5.2.7,0,.3.2,0,.5,0l-.4.4h.4l.2.3h0v.2c0,0,1,0,1,0v-.4c0-1.1-.6-2-.9-2.9-.2-.5-1.1-1.9-1.5-2.3-.7-.6-1.2-1.2-2-1.8-.5-.4-1.9-1.1-2.7-1.1h-1.1c-.4,0-1.7.3-1.7.6s0,.2.2.3h0l-.2.5h-.2c0,0,0,0,0,.2s-.2.3-.2.4l-.4-.4h0s-.2,0-.2.2.7.5.2.6v-.3q-.2.3-.4.5c0,.2-.3.3-.3.5s0,0,0,.2h.4c.4-.2.2-.3.6-.4.3,0,.4-.3.7-.4l-.2,1.8-.8-.8c0,.9,0,1.3-.2,2.1,0,.8.3,1,.6,1.5l.4-.3c0,.3,0,0,.2.4v.4l.3-.2h0c0,0,.2.2.3.2.2,0,.3-.2.4-.3v.3l.8-.4c0,0-.2.2-.2.4v.2l.4-.2c0,0,0-.2,0-.3h0c0,0,.3.2.3.2l.4-.3h0l-.2.3h0c0,0,0,.2.2.2s.2,0,.4,0l-.4.4c0,0,.3.3.4.3h.2c.3,0,1.1-.3,1.2-.4,0,0-.3,0-.3-.2h0c0-.3.3-.4.4-.4h.6v.2c0,0-.2,0-.2,0h0c-.4,0-.5.4-.7.7,0,0,.3.2.4.2s.3-.4.6-.4h0c.3,0,.4.3.5.4,0-.4.2-.7.4-.8v.3h0c0,.3-.4.5-.4.7s0,0,.2,0c.3,0,.4-.3.6-.4M29.7,14.6c.6-.2,1-.2,1.7-.2s0,0,.2,0l-.2,1.4c-.3,0-1.7-1.1-1.8-1.2h0ZM34.4,19.6h0c0,0,.4,0,.4,0,0,0,0,.2-.2.2h-.4s.2-.3.2-.3Z"/>
    <path class="st0" d="M23.3,23.8c-.4,0-.4.4-.9.4h-.2v-.3c0,0,0,0,0-.2l-.3.4h0l-.4-.3-.4.5c0-.2-.3-.2-.4-.2-.5,0-1.1,1-1.5,1h-.3c0,0-.3-.2-.3-.2l-.2.3h0l3,3.6c-.5-.2-1.8-1.2-2.2-1.6-.4-.3-.7-.6-1-.9,0,0-.9-1-.9-1-.2,0-.3,0-.4.2,0,.5-.3,1.1-.2,1.7,0,.4.4.9.7,1.2.5.7,1.1,1.4,1.7,2.1.6.7,1.2,1.3,1.9,1.9s1.4,1.6,1.9,1.9v-.3h0v-.4c0,0,.2,0,.2,0v-1.1c0-.3-.2-.4-.2-.9l.3.2h0l-.3-.3q0-.4-.3-.4l.2-.3h-.3c0-.2.2,0,.2-.3,0-.3-.3-.2-.3-.5v-.2h.2v-.3h-.2v-.4c0-.2,0-.3,0-.4h0v.6c0,0,.5-.4.5-.4h0c0,0,.2,0,.2,0l-.3-1.1v-.2c0,0-.3,0-.3,0v-.4c.3,0,.5.4.5,0,0-.4-.4-.7-.4-1.1.2,0,.3,0,.3-.3,0-.4-.2-.6.3-.8v.3l.4-1.1-.7,1.1v-1.4c0,0,0-.3,0-.3Z"/>
    <path class="st0" d="M14.6,25.7c-.4,0,0,.6,0,.7.3.3.3.5.4.9,0,.3.3.7.4.9.2.3.3.7.4.9.4.5.5,1.1.9,1.8.2.3.4.2.6.7.2.3.4.6.4.8.3.2,1.2,1.5,1.4,1.9.4,0,1,.9,1.1,1.1,0,.2.2.2.3.3,0,0,0,.3.2.4,0,.3.4.4.5.5v.2c0,.3.3.3.3.5.4,0,.4.2.6.4v-.4c-.3-.4-1.8-2.7-1.9-2.8-.5-.4-.7-1.1-1-1.4-.4-.4-.6-.9-.9-1.4l-.8-1.6c0-.2-.4-.6-.4-.8,0-.4,0-.6-.4-.8-.4-.3-.3,0-.6-.5-.2-.2-.4-.5-.4-.7,0-.3-.3-.5-.4-.8,0-.2-.3-.8-.4-.8h-.4c-.3,0-.4,0-.6.3v-.2h.2Z"/>
    <path class="st0" d="M37.3,21.4c.2-.2.3,0,.3-.4l-.4.2c0,.4.2,1.5.2,1.7v.8c-.2.4.2.6.2.7s-.4,1.6,0,1.4c0,0,.4-.4.4-.5q.2-.3.3-.6c0-.4.4-.8.5-1.2,0-.2.2-.5.2-.7,0-.3,0-.4,0-.7s0-.4,0-.6h-.7l-.2.3v-.3h-.2c0,.7-.3.2-.4,0"/>
    <path class="st0" d="M26.9,19.1v.4h.3v.3l.3-.2v.4h0v-.2h0v.2c.3,0,.4.4.6.6,0-.4,0-.4.3-.7l-1.2-.9h0l-.4.4v-.2Z"/>
    <path class="st0" d="M24.3,32.1h0v.5h.3c0-.3,0-.3,0-.4s0,0,0-.2v.3h.5c-.2-.2-.2-.6-.5-.6h-.2l-.4.4h0c0,0,0,0,0,0h.2Z"/>
    <path class="st0" d="M27.5,20.6c0,0,.3,0,.3-.3v-.4h0c0,.3-.4.2-.4.5v.2s.4.4.4.4v-.2h-.2l.3-.3v-.2h-.2c0,0-.2,0-.2,0h0Z"/>
    <path class="st0" d="M23.5,34.4c0-.2,0-.4-.3-.4h0c-.3,0,0,.6.4.7,0,0,0-.4,0-.4Z"/>
    <path class="st0" d="M29.1,21.7c0,.3.4,0,.4-.2v-.3c-.2,0-.4,0-.4.3v.2Z"/>
    <path class="st0" d="M23.4,23.3c-.4,0-.6,0-.8,0l.7.2v-.2h0c0,0,0,0,0,0Z"/>
    <path class="st0" d="M26.4,18.6c0,0,.2,0,.2.3v.2h.3v-.2c0,0,0-.4-.2-.4s-.3.2-.3.2"/>
    <path class="st0" d="M27,20.3h-.3c0,0,0-.3-.4-.3v.3h.3s0,.2,0,.3,0,0,0,.2h.4v-.4h0Z"/>
    <path class="st0" d="M14.3,23.6l-.2.2v-.2h-.2v.2c0,.2.2.2.3.3v-.4h0Z"/>
    <path class="st0" d="M35.2,20.8c-.3,0-.4,0-.6-.3v.2c.3,0,.5.3.6.3s0,0,.2-.2h-.2Z"/>
    <path class="st0" d="M18.4,23.2q0-.2.2-.3v-.3c0,0-.4.3-.4.3v.2h.2,0Z"/>
    <path class="st0" d="M31.9,19.9c-.3,0-.4,0-.4.4h0c0,0,0,0,0,0l.2-.3h0Z"/>
    <path class="st0" d="M26.6,19.9c0,0,.3,0,.3-.3h0v-.3l-.2.5h0Z"/>
    <path class="st0" d="M21.2,23.7v-.2h-.3c0,0,0,.3.2.3s0,0,0-.2"/>
    <path class="st0" d="M30.2,21.3c.2,0,.3-.2.3-.4v-.2l-.3.5Z"/>
    <path class="st0" d="M19,22.5s0-.2-.3-.2,0,0-.2.2h.4Z"/>
    <path class="st0" d="M30.2,21.6q0-.2-.2-.3v.2s.2,0,.2,0Z"/>
    <path class="st0" d="M19.6,23.4v-.2q-.2,0-.3.2h.3Z"/>
    <path class="st0" d="M20.8,23.6q0-.2-.2-.2v.3h.2Z"/>
  </g>
  <g>
    <g>
      <path class="st8" d="M4.4,29.6c-2.1,0-3.9-1.8-3.9-3.9s1.8-3.9,3.9-3.9,3.9,1.8,3.9,3.9-1.8,3.9-3.9,3.9Z"/>
      <path class="st6" d="M4.4,22.3c1.9,0,3.4,1.5,3.4,3.4s-1.5,3.4-3.4,3.4-3.4-1.5-3.4-3.4,1.5-3.4,3.4-3.4M4.4,21.3c-2.4,0-4.4,2-4.4,4.4s1.9,4.4,4.4,4.4,4.4-1.9,4.4-4.4-1.9-4.4-4.4-4.4h0Z"/>
    </g>
    <g>
      <path class="st3" d="M4.3,27.8c.6,0,1.1,0,1.9-.3h0c0-.8-.4-1.1-1.1-1.4-.2,0-.6.2-.9.2s-.6,0-.9-.2c-.7.3-1.1.6-1.1,1.3s0,0,0,0c.7.3,1.3.3,2,.3h0Z"/>
      <path class="st3" d="M4.2,23.7c-.6,0-1.1.5-1.1,1.1s.4,1.1,1.1,1.1,1.1-.5,1.1-1.1-.4-1.1-1.1-1.1Z"/>
    </g>
  </g>
  <g>
    <g>
      <path class="st8" d="M47.1,29.6c-2.1,0-3.9-1.8-3.9-3.9s1.8-3.9,3.9-3.9,3.9,1.8,3.9,3.9-1.8,3.9-3.9,3.9Z"/>
      <path class="st6" d="M47.1,22.3c1.9,0,3.4,1.5,3.4,3.4s-1.5,3.4-3.4,3.4-3.4-1.5-3.4-3.4,1.5-3.4,3.4-3.4M47.1,21.3c-2.4,0-4.4,1.9-4.4,4.4s1.9,4.4,4.4,4.4,4.4-1.9,4.4-4.4-1.9-4.4-4.4-4.4h0Z"/>
    </g>
    <g>
      <g>
        <path class="st6" d="M48.5,26.8c.4,0,.8,0,1.2-.2h0c0-.4-.3-.7-.7-.9-.2,0-.4.2-.5.2s-.4,0-.5-.2c-.4.2-.7.4-.7.9s0,0,0,0c.5.2.9.2,1.3.2h0Z"/>
        <path class="st6" d="M48.5,24.1c-.4,0-.7.4-.7.7s.4.7.7.7.7-.4.7-.7-.4-.7-.7-.7Z"/>
      </g>
      <g>
        <path class="st6" d="M45.9,26.8c.4,0,.8,0,1.2-.2h0c0-.4-.3-.7-.7-.9-.2,0-.4.2-.5.2s-.4,0-.5-.2c-.4.2-.7.4-.7.9s0,0,0,0c.5.2.9.2,1.3.2h0Z"/>
        <path class="st6" d="M45.9,24.1c-.4,0-.7.4-.7.7s.4.7.7.7.7-.4.7-.7-.4-.7-.7-.7Z"/>
      </g>
      <path class="st1" d="M48.7,27c0-.5-.3-.9-.9-1.1.2-.2.3-.4.3-.6,0-.5-.4-.9-.9-.9s-.9.4-.9.9,0,.4.3.6c-.5.2-.9.5-.9,1.1s0,0,0,0h0c0,0,0,.2,0,.2.4.2.9.2,1.4.2s.8,0,1.3-.2h0v-.2h0Z"/>
      <g>
        <path class="st6" d="M47.2,27.3c.4,0,.8,0,1.2-.2h0c0-.4-.3-.7-.7-.9-.2,0-.4.2-.5.2s-.4,0-.5-.2c-.4.2-.7.4-.7.9s0,0,0,0c.5.2.9.2,1.3.2h0Z"/>
        <path class="st6" d="M47.2,24.7c-.4,0-.7.4-.7.7s.4.7.7.7.7-.4.7-.7-.4-.7-.7-.7Z"/>
      </g>
    </g>
  </g>
  <g>
    <path class="st8" d="M25.7,8.3c-2.1,0-3.9-1.8-3.9-3.9s1.8-3.9,3.9-3.9,3.9,1.8,3.9,3.9-1.8,3.9-3.9,3.9Z"/>
    <path class="st6" d="M25.7,1c1.9,0,3.4,1.5,3.4,3.4s-1.5,3.4-3.4,3.4-3.4-1.5-3.4-3.4,1.5-3.4,3.4-3.4M25.7,0c-2.4,0-4.4,1.9-4.4,4.4s1.9,4.4,4.4,4.4,4.4-1.9,4.4-4.4-1.9-4.4-4.4-4.4h0Z"/>
  </g>
  <g>
    <g>
      <path class="st6" d="M26.5,5.4c.4,0,.8,0,1.3-.2h0c0-.4-.3-.8-.8-1-.2,0-.4.2-.6.2s-.4,0-.6-.2c-.5.2-.8.4-.8,1s0,0,0,0c.5.2,1,.2,1.4.2h0Z"/>
      <path class="st6" d="M26.5,2.6c-.4,0-.8.4-.8.8s.4.8.8.8.8-.4.8-.8-.4-.8-.8-.8Z"/>
    </g>
    <path class="st1" d="M26.7,5.6c0-.5-.3-.9-.9-1.1.2-.2.3-.4.3-.7,0-.5-.4-1-1-1s-1,.4-1,1,0,.5.3.7c-.6.2-.9.6-.9,1.1s0,0,0,0h0c0,0,0,.2,0,.2.5.2,1,.2,1.5.2s.9,0,1.4-.3h0v-.2h0Z"/>
    <g>
      <path class="st6" d="M25.1,6c.4,0,.8,0,1.3-.2h0c0-.4-.3-.8-.8-1-.2,0-.4.2-.6.2s-.4,0-.6-.2c-.5.2-.8.4-.8,1s0,0,0,0c.5.2,1,.2,1.4.2h0Z"/>
      <path class="st6" d="M25,3.1c-.4,0-.8.4-.8.8s.4.8.8.8.8-.4.8-.8-.4-.8-.8-.8Z"/>
    </g>
  </g>
  <g>
    <g>
      <path class="st1" d="M26.9,47c0-.4-.3-.7-.7-.8,0,0,.2-.3.2-.5s-.4-.7-.7-.7-.7.4-.7.7,0,.4.2.5c-.4.2-.7.4-.7.8s0,0,0,0h0c0,0,0,0,0,0,.4,0,.7.2,1.1.2s.6,0,1.1-.2h0c0,0,0,0,0,0Z"/>
      <g>
        <path class="st6" d="M25.7,47.1c.4,0,.6,0,1-.2h0c0-.4-.2-.6-.6-.7,0,0-.4,0-.4,0s-.4,0-.4,0c-.4,0-.6.4-.6.7s0,0,0,0c.4,0,.7.2,1.1.2h0Z"/>
        <path class="st6" d="M25.7,45.1c-.4,0-.5.3-.5.5s.3.5.5.5.5-.3.5-.5-.3-.5-.5-.5Z"/>
      </g>
    </g>
    <g>
      <path class="st1" d="M28.4,48.1c0-.4-.3-.7-.7-.9,0-.2.2-.4.2-.5,0-.4-.4-.7-.7-.7s-.7.4-.7.7,0,.4.2.5c-.4.2-.7.4-.7.9s0,0,0,0h0c0,0,0,0,0,0,.4,0,.7.2,1.1.2s.7,0,1.1-.2h0v-.2h0Z"/>
      <g>
        <path class="st6" d="M27.1,48.4c.4,0,.6,0,1.1-.2h0c0-.4-.3-.6-.6-.7,0,0-.4,0-.4,0s-.4,0-.4,0c-.4,0-.6.4-.6.7s0,0,0,0c.4,0,.7.2,1.1.2h0Z"/>
        <path class="st6" d="M27.1,46.2c-.4,0-.6.3-.6.6s.3.6.6.6.6-.3.6-.6-.3-.6-.6-.6Z"/>
      </g>
    </g>
    <g>
      <path class="st1" d="M25.5,48.1c0-.4-.3-.7-.7-.9,0-.2.2-.4.2-.5,0-.4-.4-.7-.7-.7s-.7.4-.7.7,0,.4.2.5c-.4.2-.7.4-.7.9s0,0,0,0h0c0,0,0,0,0,0,.4,0,.7.2,1.1.2s.7,0,1.1-.2h0v-.2h0Z"/>
      <g>
        <path class="st6" d="M24.3,48.4c.4,0,.6,0,1.1-.2h0c0-.4-.3-.6-.6-.7,0,0-.4,0-.4,0s-.4,0-.4,0c-.4,0-.6.4-.6.7s0,0,0,0c.4,0,.7.2,1.1.2h0Z"/>
        <path class="st6" d="M24.3,46.2c-.4,0-.6.3-.6.6s.3.6.6.6.6-.3.6-.6-.3-.6-.6-.6Z"/>
      </g>
    </g>
    <g>
      <path class="st1" d="M27,48.7c0-.4-.3-.7-.7-.9,0-.2.2-.4.2-.5,0-.4-.4-.7-.7-.7s-.7.4-.7.7,0,.4.2.5c-.4.2-.7.4-.7.9s0,0,0,0h0c0,0,0,0,0,0,.4,0,.7.2,1.1.2s.7,0,1.1-.2h0v-.2h0Z"/>
      <g>
        <path class="st6" d="M25.7,49c.4,0,.6,0,1.1-.2h0c0-.4-.3-.6-.6-.7,0,0-.4,0-.4,0s-.4,0-.4,0c-.4,0-.6.4-.6.7s0,0,0,0c.4,0,.7.2,1.1.2h0Z"/>
        <path class="st6" d="M25.7,46.8c-.4,0-.6.3-.6.6s.3.6.6.6.6-.3.6-.6-.3-.6-.6-.6Z"/>
      </g>
    </g>
  </g>
</svg>