<?xml version="1.0" encoding="UTF-8"?>
<svg id="Layer_1" xmlns="http://www.w3.org/2000/svg" version="1.1" viewBox="0 0 51.4 51.4">
  <!-- Generator: Adobe Illustrator 30.6.0, SVG Export Plug-In . SVG Version: 2.1.4 Build 109)  -->
  <defs>
    <style>
      .st0 {
        fill: #fff;
        fill-rule: evenodd;
      }

      .st1 {
        fill: #26262a;
      }

      .st2 {
        stroke: #26262a;
      }

      .st2, .st3, .st4 {
        fill: none;
        stroke-miterlimit: 10;
      }

      .st5 {
        fill: #ee3e2d;
      }

      .st3 {
        stroke: #f3f3f3;
        stroke-linecap: round;
        stroke-width: 1.2px;
      }

      .st4 {
        stroke: #ee3e2d;
      }
    </style>
  </defs>
  <circle class="st1" cx="25.7" cy="25.7" r="25.7"/>
  <circle class="st4" cx="25.7" cy="25.7" r="21.8"/>
  <circle class="st2" cx="25.7" cy="25.7" r="20.8"/>
  <g>
    <line class="st3" x1="25.7" y1="7.8" x2="25.7" y2="43.7"/>
    <line class="st3" x1="43.7" y1="25.7" x2="7.8" y2="25.7"/>
  </g>
  <g>
    <path class="st5" d="M25.7,45.9c-11.1,0-20.1-9-20.1-20.1S14.6,5.6,25.7,5.6s20.1,9,20.1,20.1-9,20.1-20.1,20.1h0Z"/>
    <path class="st1" d="M25.7,6.7c10.6,0,19,8.5,19,19s-8.5,19-19,19S6.7,36.3,6.7,25.7,15.2,6.7,25.7,6.7M25.7,4.6C14.1,4.6,4.6,14.1,4.6,25.7s9.5,21.2,21.2,21.2,21.2-9.5,21.2-21.2S37.4,4.6,25.7,4.6h0Z"/>
  </g>
  <g>
    <path class="st0" d="M13,19.2c-.4,0-.2.3-.2.6,0,.6,0,1.2.2,1.9,0,.4,0,.5.2.8,0,0,.2.9.3.9l.2-.2v.2c.4,0,.6.3.6-.3,0,0,0,.2.2.2s.2,0,.3-.2h.2s-.2-.5-.2-.7c-.2-.5,0-.2,0-.8v-1.6c0-.1.2,0,.3-.3l2.1,2.9.4-.3h0v.4c.3-.2,0-.5.4-.5v.2-.2.2h.7s.3.2.4.3c0-.2.3-.5.4-.5h0c.4,0,.2.4.2.7l.3-.4h0l-.4-.4h.6v-.2h-.4,1.3c0,.3,0,0,.2,0s.2.3.3.3,0,0,.2-.2c.4,0,0,.3.4.4v-.3h.2l.2-.2v.4c.2-.2.4-.9.7-.9h.2v.3l1.1-.4v-.7h-.2v.2h-.4c0-.2,0-.4.3-.4h.6v-1.1c0-.3,0-.7.2-.7v-.2l.3-.2-.3-.9c.2,0,.4,0,.4.3.2-.2,0-.5,0-.8h0v-.2h.2c0-.4.2-.4.2-.7v-.4h.3c-.2-.5-.6-1-1.1-1.1-.3,0-.5-.2-.9-.3-.7-.3-.4,0-.7-.5-.2-.2-1.3-.6-1.7-.8-.6-.2-1.4-.3-2.2-.3h0c-.9,0-1.9.4-2.5.8-.7.4-1.2.8-1.8,1.4-.2.2-1.1,1.9-1.2,2-.2.4-.4,2.2-.4,2.8M20.3,13.8c.4,0,1,.5,1.3.6.2,0,.4.3.6.4.3,0,.4,0,.6.4.5.4,1.9,1.2,2,1.9l-1.2-.9v.7l-3.3-3h0ZM17.3,14.3c.4-.2,1.3-.7,1.9-.7h.4c.4,0,0,1.4,0,1.9v.4c0,.3,0,.4.2.6l-.8-.9v1.2l-1.6-2.4h-.1ZM14.8,16.9c0-.8,1-1.6,1.6-1.8v.4c0,.4.7,2.1,1,2.6.3.6,1,1.9,1.1,2.5-.3-.2-1.3-1.5-1.8-1.9-.2-.2-1.9-1.8-1.9-1.8Z"/>
    <path class="st0" d="M25.4,30.5v-.3c-.3,0-.4-.4-.4-.7h-.5c.5.9.2.4.2,1.2v.2c0,.5.6.3.8.8l.2-.3v.2c.2,0,.3,0,.3.3l-.3-.2v.4l-.3-.2v.3h-.2v.3-.2l-.2.3h-.4v.2h-.3c.4.2.5.4.6.7.2.3.4.4.4.8l-.3.2h-.5s.2.3.2.4h-.2v.6h0c0,.4.2.4.2.9v-.3c-.4.2.2.5.3.7.2.3.4.4.5.7.3.4.8,1.2,1.1,1.6,0-.3.3-1.4.3-1.7,0-.6.2-1.1.3-1.6.2-.6.4-2.6.6-3l1.8,1.8c0-1,.4-2.3,0-3,0-.2-1.1-2.1-1.1-2.1,0,0,.2-1,.3-1.1l1.8,1.7c0-.8.4-2.3,0-2.7-.3-.4-1.1-1.2-1.3-1.7v-.4c.4.2,1.4,1.1,1.7,1.4.4.4,1.2,1.3,1.5,1.5,0-1,0-1.4.2-2.2,0-.8-.6-1-.9-1.4l1.5.6v-1.6l1.3.9.2-1.9v-.6c0-.3-.2-.2-.3-.4-.3,0-.4,0-.6-.2v.2l-.2-.4c-.4,0-.2.3-.9.3s-.6.2-.9.3v-.4c-.3.2-.3.4-.7.4h-.4v-.3l-.2.2v-.2q-.3,0-.5.2c-.2.2-.3.2-.5.2,0,0,.2,0,.2-.3v-.2l-.8.2h-.3v-.3l-.5.2c-.4,0-.4.3-.8.4v-.4h0v.2q0,.2-.3.2v.4l-.3-.2v.3h-.2l-.2.3h-.2c0,.1,0,.2-.2.2,0,.4,0,.2-.4.2v.3h0v.4h-.2v.3h-.2c0,.4.5.8.5,1.3s0,0,0,.2c-.4,0-.2-.3-.4-.4,0,.2.2.4.2.6s0,.7-.2,1c0,.3-.2.4.2.4s.3,0,.4,0h.2l-.2-.2v-.4c.2,0,.4.2.4.4,0,.3-.4.5-.4.8h0c0,.1,0,.2.2.2h-.3l.3.4h0l-.3.5s-.4-.4-.4-.7v-.3h-.7v.4h0v.2h.2c.2,0,.4.4.5.5,0,.4.2.4.2.7s-.3.5-.3,1.1c-.2-.2-.2-.4-.4-.4v.4h-.3c-.2,0-.2-.2-.2-.3,0-.3.5,0,.5-.4"/>
    <path class="st0" d="M36.1,20.3c0,.2-.2,0,.2.2v-1.1c0-1.1-1.1-2.3-1.5-2.9.7,0,1.2,1.1,1.6,1.7.3.4.3.8.4,1.2,0,.3,0,.5.2.7,0,.3.2,0,.5,0l-.4.4h.4l.2.3h0v.2h1v-.4c0-1.1-.6-2-.9-2.9-.2-.5-1.1-1.9-1.5-2.3-.7-.6-1.2-1.2-2-1.8-.5-.4-1.9-1.1-2.7-1.1h-1.1c-.4,0-1.7.3-1.7.6s0,.2.2.3h0l-.2.5h-.2v.2c0,.2-.2.3-.2.4l-.4-.4h0s-.2,0-.2.2.7.5.2.6v-.3c-.1.2-.3.4-.4.5,0,.2-.3.3-.3.5v.2h.4c.4-.2.2-.3.6-.4.3,0,.4-.3.7-.4l-.2,1.8-.8-.8c0,.9,0,1.3-.2,2.1,0,.8.3,1,.6,1.5l.4-.3c0,.3,0,0,.2.4v.4l.3-.2h0s.2.2.3.2c.2,0,.3-.2.4-.3v.3l.8-.4s-.2.2-.2.4v.2l.4-.2v-.3h0l.3.2.4-.3h0l-.2.3h0s0,.2.2.2h.4l-.4.4s.3.3.4.3h.2c.3,0,1.1-.3,1.2-.4,0,0-.3,0-.3-.2h0c0-.3.3-.4.4-.4h.6v.2h-.2c-.4,0-.5.4-.7.7,0,0,.3.2.4.2s.3-.4.6-.4h0c.3,0,.4.3.5.4,0-.4.2-.7.4-.8v.3h0c0,.3-.4.5-.4.7s0,0,.2,0c.3,0,.4-.3.6-.4M29.7,14.6c.6-.2,1-.2,1.7-.2s0,0,.2,0l-.2,1.4c-.3,0-1.7-1.1-1.8-1.2h0ZM34.4,19.6h.4s0,.2-.2.2h-.4l.2-.3h0Z"/>
    <path class="st0" d="M23.3,23.8c-.4,0-.4.4-.9.4h-.2v-.5l-.3.4h0l-.4-.3-.4.5c0-.2-.3-.2-.4-.2-.5,0-1.1,1-1.5,1h-.3l-.3-.2-.2.3h0l3,3.6c-.5-.2-1.8-1.2-2.2-1.6-.4-.3-.7-.6-1-.9l-.9-1c-.2,0-.3,0-.4.2,0,.5-.3,1.1-.2,1.7,0,.4.4.9.7,1.2.5.7,1.1,1.4,1.7,2.1s1.2,1.3,1.9,1.9,1.4,1.6,1.9,1.9v-.3h0v-.4h.2v-1.1c0-.3-.2-.4-.2-.9l.3.2h0l-.3-.3c0-.3,0-.4-.3-.4l.2-.3h-.3c0-.2.2,0,.2-.3s-.3-.2-.3-.5v-.2h.2v-.3h-.2v-.8h0v.6l.5-.4h.2l-.3-1.1v-.2h-.3v-.4c.3,0,.5.4.5,0s-.4-.7-.4-1.1c.2,0,.3,0,.3-.3s-.2-.6.3-.8v.3l.4-1.1-.7,1.1v-1.7l.4.2Z"/>
    <path class="st0" d="M14.6,25.7c-.4,0,0,.6,0,.7.3.3.3.5.4.9,0,.3.3.7.4.9.2.3.3.7.4.9.4.5.5,1.1.9,1.8.2.3.4.2.6.7.2.3.4.6.4.8.3.2,1.2,1.5,1.4,1.9.4,0,1,.9,1.1,1.1,0,.2.2.2.3.3,0,0,0,.3.2.4,0,.3.4.4.5.5v.2c0,.3.3.3.3.5.4,0,.4.2.6.4v-.4c-.3-.4-1.8-2.7-1.9-2.8-.5-.4-.7-1.1-1-1.4-.4-.4-.6-.9-.9-1.4l-.8-1.6c0-.2-.4-.6-.4-.8,0-.4,0-.6-.4-.8-.4-.3-.3,0-.6-.5-.2-.2-.4-.5-.4-.7,0-.3-.3-.5-.4-.8,0-.2-.3-.8-.4-.8h-.4c-.3,0-.4,0-.6.3v-.2h.7Z"/>
    <path class="st0" d="M37.3,21.4c.2-.2.3,0,.3-.4l-.4.2c0,.4.2,1.5.2,1.7v.8c-.2.4.2.6.2.7s-.4,1.6,0,1.4c0,0,.4-.4.4-.5.1-.2.2-.4.3-.6,0-.4.4-.8.5-1.2,0-.2.2-.5.2-.7v-1.3h-.7l-.2.3v-.3h-.2c0,.7-.3.2-.4,0"/>
    <path class="st0" d="M26.9,19.1v.4h.3v.3l.3-.2v.4h0v-.2h0v.2c.3,0,.4.4.6.6q0-.4.3-.7l-1.2-.9h0l-.4.4v-.2h.1Z"/>
    <path class="st0" d="M24.3,32.1h0v.5h.3v-.6.3h.5c-.2-.2-.2-.6-.5-.6h-.2l-.4.4h.3Z"/>
    <path class="st0" d="M27.5,20.6s.3,0,.3-.3v-.4h0c0,.3-.4.2-.4.5v.2l.4.4v-.2h-.2l.3-.3v-.2h-.4v.3Z"/>
    <path class="st0" d="M23.5,34.4c0-.2,0-.4-.3-.4h0c-.3,0,0,.6.4.7v-.4h-.1Z"/>
    <path class="st0" d="M29.1,21.7c0,.3.4,0,.4-.2v-.3c-.2,0-.4,0-.4.3v.2Z"/>
    <path class="st0" d="M23.4,23.3h-.8l.7.2v-.2h0Z"/>
    <path class="st0" d="M26.4,18.6s.2,0,.2.3v.2h.3v-.2s0-.4-.2-.4-.3.2-.3.2"/>
    <path class="st0" d="M27,20.3h-.3s0-.3-.4-.3v.3h.3v.5h.4v-.4h0Z"/>
    <path class="st0" d="M14.3,23.6l-.2.2v-.2h-.2v.2c0,.2.2.2.3.3v-.4h0Z"/>
    <path class="st0" d="M35.2,20.8c-.3,0-.4,0-.6-.3v.2c.3,0,.5.3.6.3s0,0,.2-.2h-.2Z"/>
    <path class="st0" d="M18.4,23.2c0-.1,0-.2.2-.3v-.3l-.4.3v.2h.2,0Z"/>
    <path class="st0" d="M31.9,19.9c-.3,0-.4,0-.4.4h0l.2-.3h.2Z"/>
    <path class="st0" d="M26.6,19.9s.3,0,.3-.3h0v-.3l-.2.5h0Z"/>
    <path class="st0" d="M21.2,23.7v-.2h-.3s0,.3.2.3,0,0,0-.2"/>
    <path class="st0" d="M30.2,21.3c.2,0,.3-.2.3-.4v-.2l-.3.5h0Z"/>
    <path class="st0" d="M19,22.5s0-.2-.3-.2,0,0-.2.2h.5Z"/>
    <path class="st0" d="M30.2,21.6c0-.1,0-.2-.2-.3v.2h.2Z"/>
    <path class="st0" d="M19.6,23.4v-.2c-.1,0-.2,0-.3.2h.3Z"/>
    <path class="st0" d="M20.8,23.6c0-.1,0-.2-.2-.2v.3h.2Z"/>
  </g>
</svg>